<?xml version="1.0" encoding="UTF-8" standalone="no"?>
<svg
   xmlns:dc="http://purl.org/dc/elements/1.1/"
   xmlns:cc="http://creativecommons.org/ns#"
   xmlns:rdf="http://www.w3.org/1999/02/22-rdf-syntax-ns#"
   xmlns:svg="http://www.w3.org/2000/svg"
   xmlns="http://www.w3.org/2000/svg"
   xmlns:sodipodi="http://sodipodi.sourceforge.net/DTD/sodipodi-0.dtd"
   xmlns:inkscape="http://www.inkscape.org/namespaces/inkscape"
   sodipodi:docname="diadia-logo-300.svg"
   inkscape:version="1.0 (6e3e5246a0, 2020-05-07)"
   id="svg3895"
   version="1.1"
   viewBox="0 0 79.374999 26.458334"
   height="100"
   width="300">
  <defs
     id="defs3889" />
  <sodipodi:namedview
     inkscape:document-rotation="0"
     inkscape:window-maximized="1"
     inkscape:window-y="0"
     inkscape:window-x="0"
     inkscape:window-height="1043"
     inkscape:window-width="1920"
     units="px"
     showgrid="false"
     inkscape:current-layer="layer1"
     inkscape:document-units="mm"
     inkscape:cy="22.012879"
     inkscape:cx="383.11355"
     inkscape:zoom="1.6070797"
     inkscape:pageshadow="2"
     inkscape:pageopacity="0.0"
     borderopacity="1.0"
     bordercolor="#666666"
     pagecolor="#ffffff"
     id="base" />
  <metadata
     id="metadata3892">
    <rdf:RDF>
      <cc:Work
         rdf:about="">
        <dc:format>image/svg+xml</dc:format>
        <dc:type
           rdf:resource="http://purl.org/dc/dcmitype/StillImage" />
        <dc:title></dc:title>
      </cc:Work>
    </rdf:RDF>
  </metadata>
  <g
     transform="translate(0,-285.6229)"
     id="layer1"
     inkscape:groupmode="layer"
     inkscape:label="Capa 1">
    <g
       id="g3857"
       transform="matrix(0.6236376,0,0,-0.6236376,-359.5648,738.30317)">
      <g
         id="g12"
         transform="translate(608.6377,720.7231)">
        <path
           d="M 0,0 V -31.711 L 11.892,0 Z"
           style="fill:#020202;fill-opacity:1;fill-rule:nonzero;stroke:none"
           id="path14"
           inkscape:connector-curvature="0" />
      </g>
      <g
         id="g24"
         transform="translate(584.8545,689.0122)">
        <path
           d="M 0,0 H 15.855 V 15.855 C 15.855,7.099 8.757,0 0,0"
           style="fill:#020202;fill-opacity:1;fill-rule:nonzero;stroke:none"
           id="path26"
           inkscape:connector-curvature="0" />
      </g>
      <g
         id="g28"
         transform="translate(628.457,720.7231)">
        <path
           d="M 0,0 11.892,-31.711 V 0 Z"
           style="fill:#020202;fill-opacity:1;fill-rule:nonzero;stroke:none"
           id="path30"
           inkscape:connector-curvature="0" />
      </g>
      <g
         id="g32"
         transform="translate(584.8545,720.7231)">
        <path
           d="M 0,0 C 8.757,0 15.855,-7.099 15.855,-15.855 V 0 Z"
           style="fill:#020202;fill-opacity:1;fill-rule:nonzero;stroke:none"
           id="path34"
           inkscape:connector-curvature="0" />
      </g>
      <g
         id="g36"
         transform="translate(656.2041,689.0122)">
        <path
           d="M 0,0 H 15.855 V 15.855 C 15.855,7.099 8.757,0 0,0"
           style="fill:#020202;fill-opacity:1;fill-rule:nonzero;stroke:none"
           id="path38"
           inkscape:connector-curvature="0" />
      </g>
      <path
         transform="translate(679.9873,720.7231)"
         d="M 0,0 V -31.711 L 11.893,0 Z"
         style="fill:#020202;fill-opacity:1;fill-rule:nonzero;stroke:none"
         id="path42"
         inkscape:connector-curvature="0" />
      <g
         id="g44"
         transform="translate(656.2041,720.7231)">
        <path
           d="M 0,0 C 8.757,0 15.855,-7.099 15.855,-15.855 V 0 Z"
           style="fill:#020202;fill-opacity:1;fill-rule:nonzero;stroke:none"
           id="path46"
           inkscape:connector-curvature="0" />
      </g>
      <g
         id="g48"
         transform="translate(584.8545,712.7954)">
        <path
           d="M 0,0 H -7.928 V -15.855 H 0 c 4.379,0 7.928,3.549 7.928,7.927 C 7.928,-3.549 4.379,0 0,0"
           style="fill:#020202;fill-opacity:1;fill-rule:nonzero;stroke:none"
           id="path50"
           inkscape:connector-curvature="0" />
      </g>
      <g
         id="g52"
         transform="translate(656.2041,712.7954)">
        <path
           d="M 0,0 H -7.928 V -15.855 H 0 c 4.379,0 7.928,3.549 7.928,7.927 C 7.928,-3.549 4.379,0 0,0"
           style="fill:#020202;fill-opacity:1;fill-rule:nonzero;stroke:none"
           id="path54"
           inkscape:connector-curvature="0" />
      </g>
      <g
         id="g56"
         transform="translate(619.2051,696.9399)">
        <path
           d="M 0,0 -2.64,-7.912 13.216,-7.927 10.573,0 Z"
           style="fill:#020202;fill-opacity:1;fill-rule:nonzero;stroke:none"
           id="path58"
           inkscape:connector-curvature="0" />
      </g>
      <g
         id="g60"
         transform="translate(690.5547,696.9399)">
        <path
           d="M 0,0 -2.64,-7.912 13.217,-7.927 10.574,0 Z"
           style="fill:#020202;fill-opacity:1;fill-rule:nonzero;stroke:none"
           id="path62"
           inkscape:connector-curvature="0" />
      </g>
    </g>
  </g>
</svg>
