<?xml version="1.0" encoding="UTF-8" standalone="no"?>
<!-- Created with Inkscape (http://www.inkscape.org/) -->

<svg
   xmlns:dc="http://purl.org/dc/elements/1.1/"
   xmlns:cc="http://creativecommons.org/ns#"
   xmlns:rdf="http://www.w3.org/1999/02/22-rdf-syntax-ns#"
   xmlns:svg="http://www.w3.org/2000/svg"
   xmlns="http://www.w3.org/2000/svg"
   xmlns:sodipodi="http://sodipodi.sourceforge.net/DTD/sodipodi-0.dtd"
   xmlns:inkscape="http://www.inkscape.org/namespaces/inkscape"
   width="170"
   height="43"
   viewBox="0 0 44.979166 11.377084"
   version="1.1"
   id="svg3895"
   inkscape:version="0.92.3 (2405546, 2018-03-11)"
   sodipodi:docname="diadia-logo.svg">
  <defs
     id="defs3889" />
  <sodipodi:namedview
     id="base"
     pagecolor="#ffffff"
     bordercolor="#666666"
     borderopacity="1.0"
     inkscape:pageopacity="0.0"
     inkscape:pageshadow="2"
     inkscape:zoom="3.959798"
     inkscape:cx="73.178135"
     inkscape:cy="30.697731"
     inkscape:document-units="mm"
     inkscape:current-layer="layer1"
     showgrid="false"
     units="px"
     inkscape:window-width="1920"
     inkscape:window-height="1026"
     inkscape:window-x="0"
     inkscape:window-y="28"
     inkscape:window-maximized="1" />
  <metadata
     id="metadata3892">
    <rdf:RDF>
      <cc:Work
         rdf:about="">
        <dc:format>image/svg+xml</dc:format>
        <dc:type
           rdf:resource="http://purl.org/dc/dcmitype/StillImage" />
        <dc:title></dc:title>
      </cc:Work>
    </rdf:RDF>
  </metadata>
  <g
     inkscape:label="Capa 1"
     inkscape:groupmode="layer"
     id="layer1"
     transform="translate(0,-285.6229)">
    <g
       transform="matrix(0.35277777,0,0,-0.35277777,-203.41134,539.97306)"
       id="g3857">
      <g
         transform="translate(608.6377,720.7231)"
         id="g12">
        <path
           inkscape:connector-curvature="0"
           id="path14"
           style="fill:#020202;fill-opacity:1;fill-rule:nonzero;stroke:none"
           d="M 0,0 V -31.711 L 11.892,0 Z" />
      </g>
      <g
         transform="translate(584.8545,689.0122)"
         id="g24">
        <path
           inkscape:connector-curvature="0"
           id="path26"
           style="fill:#020202;fill-opacity:1;fill-rule:nonzero;stroke:none"
           d="M 0,0 H 15.855 V 15.855 C 15.855,7.099 8.757,0 0,0" />
      </g>
      <g
         transform="translate(628.457,720.7231)"
         id="g28">
        <path
           inkscape:connector-curvature="0"
           id="path30"
           style="fill:#020202;fill-opacity:1;fill-rule:nonzero;stroke:none"
           d="M 0,0 11.892,-31.711 V 0 Z" />
      </g>
      <g
         transform="translate(584.8545,720.7231)"
         id="g32">
        <path
           inkscape:connector-curvature="0"
           id="path34"
           style="fill:#020202;fill-opacity:1;fill-rule:nonzero;stroke:none"
           d="M 0,0 C 8.757,0 15.855,-7.099 15.855,-15.855 V 0 Z" />
      </g>
      <g
         transform="translate(656.2041,689.0122)"
         id="g36">
        <path
           inkscape:connector-curvature="0"
           id="path38"
           style="fill:#020202;fill-opacity:1;fill-rule:nonzero;stroke:none"
           d="M 0,0 H 15.855 V 15.855 C 15.855,7.099 8.757,0 0,0" />
      </g>
      <path
         inkscape:connector-curvature="0"
         id="path42"
         style="fill:#020202;fill-opacity:1;fill-rule:nonzero;stroke:none"
         d="M 0,0 V -31.711 L 11.893,0 Z"
         transform="translate(679.9873,720.7231)" />
      <g
         transform="translate(656.2041,720.7231)"
         id="g44">
        <path
           inkscape:connector-curvature="0"
           id="path46"
           style="fill:#020202;fill-opacity:1;fill-rule:nonzero;stroke:none"
           d="M 0,0 C 8.757,0 15.855,-7.099 15.855,-15.855 V 0 Z" />
      </g>
      <g
         transform="translate(584.8545,712.7954)"
         id="g48">
        <path
           inkscape:connector-curvature="0"
           id="path50"
           style="fill:#020202;fill-opacity:1;fill-rule:nonzero;stroke:none"
           d="M 0,0 H -7.928 V -15.855 H 0 c 4.379,0 7.928,3.549 7.928,7.927 C 7.928,-3.549 4.379,0 0,0" />
      </g>
      <g
         transform="translate(656.2041,712.7954)"
         id="g52">
        <path
           inkscape:connector-curvature="0"
           id="path54"
           style="fill:#020202;fill-opacity:1;fill-rule:nonzero;stroke:none"
           d="M 0,0 H -7.928 V -15.855 H 0 c 4.379,0 7.928,3.549 7.928,7.927 C 7.928,-3.549 4.379,0 0,0" />
      </g>
      <g
         transform="translate(619.2051,696.9399)"
         id="g56">
        <path
           inkscape:connector-curvature="0"
           id="path58"
           style="fill:#020202;fill-opacity:1;fill-rule:nonzero;stroke:none"
           d="M 0,0 -2.64,-7.912 13.216,-7.927 10.573,0 Z" />
      </g>
      <g
         transform="translate(690.5547,696.9399)"
         id="g60">
        <path
           inkscape:connector-curvature="0"
           id="path62"
           style="fill:#020202;fill-opacity:1;fill-rule:nonzero;stroke:none"
           d="M 0,0 -2.64,-7.912 13.217,-7.927 10.574,0 Z" />
      </g>
    </g>
  </g>
</svg>
