<?xml version="1.0" encoding="UTF-8" standalone="no"?>
<svg
   xmlns:dc="http://purl.org/dc/elements/1.1/"
   xmlns:cc="http://creativecommons.org/ns#"
   xmlns:rdf="http://www.w3.org/1999/02/22-rdf-syntax-ns#"
   xmlns:svg="http://www.w3.org/2000/svg"
   xmlns="http://www.w3.org/2000/svg"
   xmlns:sodipodi="http://sodipodi.sourceforge.net/DTD/sodipodi-0.dtd"
   xmlns:inkscape="http://www.inkscape.org/namespaces/inkscape"
   width="170"
   height="14"
   viewBox="0 0 44.979165 3.7041669"
   version="1.1"
   id="svg8"
   inkscape:version="1.0 (6e3e5246a0, 2020-05-07)"
   sodipodi:docname="arquitectura.svg">
  <defs
     id="defs2" />
  <sodipodi:namedview
     id="base"
     pagecolor="#ffffff"
     bordercolor="#666666"
     borderopacity="1.0"
     inkscape:pageopacity="0.0"
     inkscape:pageshadow="2"
     inkscape:zoom="7.3791571"
     inkscape:cx="97.76783"
     inkscape:cy="25.216346"
     inkscape:document-units="mm"
     inkscape:current-layer="layer1"
     inkscape:document-rotation="0"
     showgrid="false"
     units="px"
     inkscape:showpageshadow="false"
     inkscape:window-width="1920"
     inkscape:window-height="1043"
     inkscape:window-x="0"
     inkscape:window-y="0"
     inkscape:window-maximized="1">
    <inkscape:grid
       type="xygrid"
       id="grid10" />
  </sodipodi:namedview>
  <metadata
     id="metadata5">
    <rdf:RDF>
      <cc:Work
         rdf:about="">
        <dc:format>image/svg+xml</dc:format>
        <dc:type
           rdf:resource="http://purl.org/dc/dcmitype/StillImage" />
        <dc:title />
      </cc:Work>
    </rdf:RDF>
  </metadata>
  <g
     inkscape:label="Capa 1"
     inkscape:groupmode="layer"
     id="layer1">
    <path
       d="M 0.96278405,2.080543 H 1.7360436 L 1.451757,1.4475314 Q 1.427119,1.3868834 1.400585,1.3091786 1.374052,1.2295786 1.347518,1.1329209 1.324775,1.2238929 1.298242,1.3034929 1.273604,1.3811979 1.24707,1.4475314 Z M 2.2098547,3.1703084 1.8952442,2.4558013 H 0.79600257 L 0.47381107,3.1703084 H 3.6205165e-8 L 1.3437281,0.28574681 2.6855609,3.1703084 Z"
       style="font-style:normal;font-variant:normal;font-weight:normal;font-stretch:normal;font-size:3.88146px;line-height:1.25;font-family:'Futura Md BT';-inkscape-font-specification:'Futura Md BT';letter-spacing:1.48283px;fill:#000000;fill-opacity:1;stroke:none;stroke-width:0.0970363"
       id="path833" />
    <path
       d="m 4.8810028,1.5783033 h 0.081495 q 0.3582012,0 0.4757063,-0.083391 0.1175051,-0.083391 0.1175051,-0.2956581 0,-0.22932457 -0.1269813,-0.32219153 Q 5.3036423,0.78230076 4.9624983,0.78230076 H 4.8810028 Z M 4.8525742,1.9289235 V 3.1703084 H 4.4299347 V 0.39567096 h 0.6292211 q 0.2767056,0 0.4283251,0.0360096 0.1535148,0.0360096 0.2615437,0.11940038 0.1288766,0.10044794 0.1990007,0.25964845 0.070124,0.1592005 0.070124,0.34872491 0,0.333563 -0.1610958,0.5230874 -0.1610957,0.1876292 -0.4757062,0.2255341 l 0.955203,1.2622326 H 5.8267296 L 4.9037457,1.9289235 Z"
       style="font-style:normal;font-variant:normal;font-weight:normal;font-stretch:normal;font-size:3.88146px;line-height:1.25;font-family:'Futura Md BT';-inkscape-font-specification:'Futura Md BT';letter-spacing:1.48283px;fill:#000000;fill-opacity:1;stroke:none;stroke-width:0.0970363"
       id="path835" />
    <path
       d="m 9.95153,2.1772004 0.267229,0.2861819 q 0.126982,-0.1535148 0.185734,-0.318401 0.05875,-0.1667815 0.05875,-0.3600964 0,-0.2122673 -0.07581,-0.3998965 -0.07391,-0.1876292 -0.21795,-0.333563 Q 10.023549,0.90359639 9.8378153,0.82399613 9.6520814,0.74439588 9.4511855,0.74439588 q -0.2027911,0 -0.388525,0.0796003 -0.1857339,0.0796003 -0.3297725,0.22742922 -0.1440385,0.1459338 -0.2198483,0.333563 -0.07581,0.1876292 -0.07581,0.3998965 0,0.4359062 0.2937629,0.7353547 0.295658,0.2975533 0.7315642,0.2975533 0.1175051,0 0.2236388,-0.024638 Q 9.7942245,2.7666219 9.9003582,2.71166 L 9.4038044,2.1772004 Z m 0.562887,0.6159544 0.589421,0.636802 H 10.565589 L 10.203597,3.0376413 q -0.185733,0.1004479 -0.3771531,0.1497242 -0.1914197,0.049276 -0.3998965,0.049276 -0.2823914,0 -0.5534113,-0.1118194 Q 8.6021162,3.0130031 8.399325,2.8140025 8.1889529,2.6093161 8.0771335,2.3458772 7.9672094,2.0824382 7.9672094,1.7848849 q 0,-0.2975533 0.1099241,-0.5609923 Q 8.1889529,0.96045371 8.399325,0.75576735 8.6078019,0.55108098 8.8769266,0.44305207 9.1479465,0.33312791 9.4511855,0.33312791 q 0.3013438,0 0.5704685,0.10992416 0.269125,0.10802891 0.477602,0.31271528 0.210372,0.20658161 0.322191,0.47002055 0.111819,0.2634389 0.111819,0.559097 0,0.2880771 -0.108028,0.5477256 -0.106134,0.2577532 -0.310821,0.4605443 z"
       style="font-style:normal;font-variant:normal;font-weight:normal;font-stretch:normal;font-size:3.88146px;line-height:1.25;font-family:'Futura Md BT';-inkscape-font-specification:'Futura Md BT';letter-spacing:1.48283px;fill:#000000;fill-opacity:1;stroke:none;stroke-width:0.0970363"
       id="path837" />
    <path
       d="m 12.925917,0.39567096 h 0.445382 V 2.080543 q 0,0.3752583 0.172468,0.5647827 0.174362,0.1876292 0.519297,0.1876292 0.343039,0 0.515506,-0.1876292 0.174362,-0.1895244 0.174362,-0.5647827 V 0.39567096 H 15.204 V 2.1222384 q 0,0.5628875 -0.284286,0.8433836 -0.284287,0.2786009 -0.85665,0.2786009 -0.572364,0 -0.854756,-0.2786009 -0.282391,-0.2786009 -0.282391,-0.8433836 z"
       style="font-style:normal;font-variant:normal;font-weight:normal;font-stretch:normal;font-size:3.88146px;line-height:1.25;font-family:'Futura Md BT';-inkscape-font-specification:'Futura Md BT';letter-spacing:1.48283px;fill:#000000;fill-opacity:1;stroke:none;stroke-width:0.0970363"
       id="path839" />
    <path
       d="M 17.316051,3.1703084 V 0.39567096 h 0.451068 V 3.1703084 Z"
       style="font-style:normal;font-variant:normal;font-weight:normal;font-stretch:normal;font-size:3.88146px;line-height:1.25;font-family:'Futura Md BT';-inkscape-font-specification:'Futura Md BT';letter-spacing:1.48283px;fill:#000000;fill-opacity:1;stroke:none;stroke-width:0.0970363"
       id="path841" />
    <path
       d="M 20.794573,0.77851028 V 3.1703084 H 20.343505 V 0.77851028 h -0.73725 V 0.39567096 h 1.921778 v 0.38283932 z"
       style="font-style:normal;font-variant:normal;font-weight:normal;font-stretch:normal;font-size:3.88146px;line-height:1.25;font-family:'Futura Md BT';-inkscape-font-specification:'Futura Md BT';letter-spacing:1.48283px;fill:#000000;fill-opacity:1;stroke:none;stroke-width:0.0970363"
       id="path843" />
    <path
       d="M 23.359589,3.1703084 V 0.39567096 h 1.548414 V 0.77851028 H 23.810657 V 1.4740649 h 1.097346 v 0.396106 h -1.097346 v 0.8964505 h 1.097346 v 0.403687 z"
       style="font-style:normal;font-variant:normal;font-weight:normal;font-stretch:normal;font-size:3.88146px;line-height:1.25;font-family:'Futura Md BT';-inkscape-font-specification:'Futura Md BT';letter-spacing:1.48283px;fill:#000000;fill-opacity:1;stroke:none;stroke-width:0.0970363"
       id="path845" />
    <path
       d="m 29.138936,1.0703779 q -0.19142,-0.16299102 -0.405583,-0.24448652 -0.212267,-0.0814955 -0.447277,-0.0814955 -0.454859,0 -0.741041,0.29186762 -0.284286,0.2918676 -0.284286,0.7562024 0,0.4491728 0.276705,0.7410404 0.278601,0.2918676 0.701241,0.2918676 0.246381,0 0.468125,-0.087181 0.223639,-0.087181 0.428325,-0.2634389 v 0.5098206 q -0.181943,0.1307719 -0.396106,0.1952102 -0.214162,0.064438 -0.464335,0.064438 -0.318401,0 -0.589421,-0.1042385 Q 27.416159,3.035746 27.211472,2.8329549 27.008681,2.6339543 26.898757,2.3648296 26.790728,2.0938097 26.790728,1.7886754 q 0,-0.3051343 0.108029,-0.5723637 0.109924,-0.2691247 0.316506,-0.47191582 0.206581,-0.20468636 0.473811,-0.30892479 0.267229,-0.10613367 0.578049,-0.10613367 0.244487,0 0.46623,0.0720193 0.221744,0.070124 0.430221,0.21416258 z"
       style="font-style:normal;font-variant:normal;font-weight:normal;font-stretch:normal;font-size:3.88146px;line-height:1.25;font-family:'Futura Md BT';-inkscape-font-specification:'Futura Md BT';letter-spacing:1.48283px;fill:#000000;fill-opacity:1;stroke:none;stroke-width:0.0970363"
       id="path847" />
    <path
       d="M 32.081105,0.77851028 V 3.1703084 H 31.630037 V 0.77851028 h -0.73725 V 0.39567096 h 1.921777 v 0.38283932 z"
       style="font-style:normal;font-variant:normal;font-weight:normal;font-stretch:normal;font-size:3.88146px;line-height:1.25;font-family:'Futura Md BT';-inkscape-font-specification:'Futura Md BT';letter-spacing:1.48283px;fill:#000000;fill-opacity:1;stroke:none;stroke-width:0.0970363"
       id="path849" />
    <path
       d="m 34.634749,0.39567096 h 0.445382 V 2.080543 q 0,0.3752583 0.172467,0.5647827 0.174363,0.1876292 0.519297,0.1876292 0.343039,0 0.515507,-0.1876292 0.174362,-0.1895244 0.174362,-0.5647827 V 0.39567096 h 0.451068 V 2.1222384 q 0,0.5628875 -0.284286,0.8433836 -0.284287,0.2786009 -0.856651,0.2786009 -0.572363,0 -0.854755,-0.2786009 -0.282391,-0.2786009 -0.282391,-0.8433836 z"
       style="font-style:normal;font-variant:normal;font-weight:normal;font-stretch:normal;font-size:3.88146px;line-height:1.25;font-family:'Futura Md BT';-inkscape-font-specification:'Futura Md BT';letter-spacing:1.48283px;fill:#000000;fill-opacity:1;stroke:none;stroke-width:0.0970363"
       id="path851" />
    <path
       d="m 39.46837,1.5783033 h 0.08149 q 0.358202,0 0.475707,-0.083391 0.117505,-0.083391 0.117505,-0.2956581 0,-0.22932457 -0.126982,-0.32219153 -0.125086,-0.0947622 -0.46623,-0.0947622 H 39.46837 Z M 39.43994,1.9289235 V 3.1703084 H 39.017302 V 0.39567096 h 0.629221 q 0.276705,0 0.428325,0.0360096 0.153515,0.0360096 0.261544,0.11940038 0.128876,0.10044794 0.199,0.25964845 0.07012,0.1592005 0.07012,0.34872491 0,0.333563 -0.161095,0.5230874 -0.161096,0.1876292 -0.475707,0.2255341 l 0.955203,1.2622326 h -0.50982 l -0.92298,-1.2413849 z"
       style="font-style:normal;font-variant:normal;font-weight:normal;font-stretch:normal;font-size:3.88146px;line-height:1.25;font-family:'Futura Md BT';-inkscape-font-specification:'Futura Md BT';letter-spacing:1.48283px;fill:#000000;fill-opacity:1;stroke:none;stroke-width:0.0970363"
       id="path853" />
    <path
       d="m 43.261502,2.080543 h 0.773259 L 43.750475,1.4475314 q -0.02464,-0.060648 -0.05117,-0.1383528 -0.02653,-0.0796 -0.05307,-0.1762577 -0.02274,0.090972 -0.04928,0.170572 -0.02464,0.077705 -0.05117,0.1440385 z m 1.24707,1.0897654 -0.31461,-0.7145071 H 43.09472 l -0.322191,0.7145071 h -0.473811 l 1.343728,-2.88456159 1.341832,2.88456159 z"
       style="font-style:normal;font-variant:normal;font-weight:normal;font-stretch:normal;font-size:3.88146px;line-height:1.25;font-family:'Futura Md BT';-inkscape-font-specification:'Futura Md BT';letter-spacing:1.48283px;fill:#000000;fill-opacity:1;stroke:none;stroke-width:0.0970363"
       id="path855" />
  </g>
</svg>
